<svg width="200" height="200" viewBox="0 0 200 200" fill="none" xmlns="http://www.w3.org/2000/svg">
<rect width="200" height="200" fill="#0E0B13"/>
<path d="M131 9C164.137 9 191 35.8629 191 69V142.477L16.5605 189.217C14.4684 187.39 12.5047 185.421 10.6836 183.324L57.3936 9H131ZM154.462 35C154.16 35.0001 152.363 35.5578 149.522 36.2539C143.534 37.7891 134.552 40.159 124.372 42.9482C119.131 44.2023 114.489 45.5991 109.852 46.7148C105.358 47.9689 101.468 49.2279 98.0234 50.0625C94.4309 51.0397 92.1841 51.5973 91.2881 51.874C88.8928 52.5702 87.2441 54.5254 87.2441 56.7568V105.438C84.9974 104.88 82.6022 104.46 80.5088 104.46C75.7181 104.46 70.7787 105.996 66.7354 108.504C62.6923 111.012 60.0001 115.06 60 119.799C60 124.819 62.697 128.587 66.7354 131.095C70.7739 133.603 75.7181 135 80.5088 135C85.0024 135 90.0905 133.603 94.1338 131.095C98.1769 128.587 100.721 124.819 100.721 119.799V68.7529L146.38 56.6182V90.2285C144.282 89.6707 141.738 89.3887 139.491 89.3887C134.849 89.3887 129.761 90.6427 125.718 93.1553C121.675 95.6679 119.131 99.7116 119.131 104.451C119.131 109.472 121.675 113.377 125.718 115.747C129.761 118.26 134.849 119.79 139.491 119.79C143.985 119.79 149.221 118.255 153.265 115.747C157.456 113.377 160 109.472 160 104.451V40.1592C160 37.0887 157.753 35 154.462 35Z" fill="url(#paint0_linear_37_10)" fill-opacity="0.7"/>
<defs>
<linearGradient id="paint0_linear_37_10" x1="3.24419" y1="198.733" x2="357.676" y2="-171.508" gradientUnits="userSpaceOnUse">
<stop stop-color="#FF383C"/>
<stop offset="1" stop-color="#6155F5"/>
</linearGradient>
</defs>
</svg>
