<svg width="196" height="196" viewBox="0 0 196 196" fill="none" xmlns="http://www.w3.org/2000/svg">
<path d="M156 0C178.091 0 196 17.9086 196 40V136.201L9.80347 186.093L59.6667 0H156ZM158.717 26.5312C158.409 26.5312 156.575 27.1002 153.677 27.8105C147.566 29.3771 138.4 31.7954 128.012 34.6416C122.665 35.9213 117.927 37.3469 113.195 38.4854C108.61 39.765 104.64 41.0488 101.126 41.9004C97.4596 42.8976 95.1669 43.4667 94.2527 43.749C91.8085 44.4595 90.1267 46.4545 90.1267 48.7314V98.4062C87.8341 97.837 85.3899 97.4092 83.2537 97.4092C78.3653 97.4092 73.3257 98.9759 69.2 101.535C65.0743 104.094 62.327 108.224 62.3269 113.061C62.327 118.184 65.0791 122.028 69.2 124.587C73.3208 127.146 78.3655 128.571 83.2537 128.571C87.8388 128.571 93.0303 127.146 97.156 124.587C101.282 122.028 103.878 118.184 103.878 113.061V60.9727L150.469 48.5898V82.8857C148.328 82.3165 145.733 82.0303 143.44 82.0303C138.703 82.0303 133.511 83.3101 129.385 85.874C125.26 88.4379 122.664 92.5634 122.664 97.3994C122.664 102.522 125.26 106.508 129.385 108.926C133.511 111.49 138.703 113.052 143.44 113.052C148.025 113.052 153.368 111.485 157.494 108.926C161.771 106.508 164.367 102.522 164.367 97.3994V31.7949C164.367 28.662 162.075 26.5314 158.717 26.5312Z" fill="url(#paint0_linear_37_18)" fill-opacity="0.7"/>
<defs>
<linearGradient id="paint0_linear_37_18" x1="2.12253" y1="195.919" x2="368.11" y2="-186.393" gradientUnits="userSpaceOnUse">
<stop stop-color="#FF383C"/>
<stop offset="1" stop-color="#6155F5"/>
</linearGradient>
</defs>
</svg>
