<svg width="200" height="200" viewBox="0 0 200 200" fill="none" xmlns="http://www.w3.org/2000/svg">
<path d="M156 4C178.091 4 196 21.9086 196 44V137.477L13.5273 186.37L62.3936 4H156ZM159.462 30C159.16 30.0001 157.363 30.5578 154.522 31.2539C148.534 32.7891 139.552 35.159 129.372 37.9482C124.131 39.2023 119.489 40.5991 114.852 41.7148C110.358 42.9689 106.468 44.2279 103.023 45.0625C99.4309 46.0397 97.1841 46.5973 96.2881 46.874C93.8928 47.5702 92.2441 49.5254 92.2441 51.7568V100.438C89.9974 99.8797 87.6022 99.46 85.5088 99.46C80.7181 99.46 75.7787 100.996 71.7354 103.504C67.6923 106.012 65.0001 110.06 65 114.799C65 119.819 67.697 123.587 71.7354 126.095C75.7739 128.603 80.7181 130 85.5088 130C90.0024 130 95.0905 128.603 99.1338 126.095C103.177 123.587 105.721 119.819 105.721 114.799V63.7529L151.38 51.6182V85.2285C149.282 84.6707 146.738 84.3887 144.491 84.3887C139.849 84.3887 134.761 85.6427 130.718 88.1553C126.675 90.6679 124.131 94.7116 124.131 99.4512C124.131 104.472 126.675 108.377 130.718 110.747C134.761 113.26 139.849 114.79 144.491 114.79C148.985 114.79 154.221 113.255 158.265 110.747C162.456 108.377 165 104.472 165 99.4512V35.1592C165 32.0887 162.753 30 159.462 30Z" fill="url(#paint0_linear_33_23)" fill-opacity="0.7"/>
<defs>
<linearGradient id="paint0_linear_33_23" x1="6.00001" y1="196" x2="364.667" y2="-178.667" gradientUnits="userSpaceOnUse">
<stop stop-color="#FF383C"/>
<stop offset="1" stop-color="#6155F5"/>
</linearGradient>
</defs>
</svg>
